<svg width="721" height="626" viewBox="0 0 721 626" fill="none" xmlns="http://www.w3.org/2000/svg">
<path fill-rule="evenodd" clip-rule="evenodd" d="M104.5 21.5C130.478 24.5485 154.812 32.7152 177.5 46C207.615 65.0961 235.115 87.5961 260 113.5C260.544 86.989 266.878 61.989 279 38.5C281.422 34.6562 284.089 30.9895 287 27.5C312.239 41.7212 334.239 60.0546 353 82.5C361.886 93.7185 370.386 105.218 378.5 117C416.246 122.716 449.913 137.382 479.5 161C486.887 168.387 494.221 175.721 501.5 183C534.663 194.584 568.83 199.417 604 197.5C630.2 197.382 656.366 196.382 682.5 194.5C695.54 192.429 704.373 197.429 709 209.5C710.451 241.809 701.451 270.809 682 296.5C676.333 301.5 670.667 306.5 665 311.5C654.399 341.541 635.233 364.375 607.5 380C600.48 383.7 593.48 387.367 586.5 391C565.258 399.081 544.258 407.747 523.5 417C500.112 427.721 482.612 444.555 471 467.5C460.315 498.391 465.315 526.391 486 551.5C503.26 568.762 522.76 582.929 544.5 594C516.636 605.368 487.636 611.701 457.5 613C427.748 614.253 398.082 613.253 368.5 610C304.292 601.227 241.626 586.227 180.5 565C159.065 556.528 139.399 545.195 121.5 531C100.805 512.108 89.3047 488.608 87 460.5C86.6667 447.5 86.3333 434.5 86 421.5C61.2003 432.985 38.5336 447.651 18 465.5C20.3031 391.254 43.3031 324.254 87 264.5C95.18 254.989 103.347 245.489 111.5 236C89.6861 178.377 84.5194 119.211 96 58.5C98.6805 46.1126 101.514 33.7793 104.5 21.5Z" fill="#0B251C"/>
<path fill-rule="evenodd" clip-rule="evenodd" d="M638.5 239.5C648.454 250.428 660.787 257.095 675.5 259.5C665.398 279.766 649.731 293.933 628.5 302C609.401 310.026 589.734 316.36 569.5 321C552.373 324.591 535.373 328.091 518.5 331.5C495.707 333.397 473.707 338.563 452.5 347C445.927 350.109 439.927 353.942 434.5 358.5C431.397 360.423 428.397 362.59 425.5 365C471.687 356.746 518.021 348.913 564.5 341.5C588.313 337.088 611.48 330.422 634 321.5C634.5 321.667 635 321.833 635.5 322C627.5 335.333 616.833 346 603.5 354C590.45 361.357 576.783 367.357 562.5 372C536.892 379.536 511.225 386.869 485.5 394C459.654 401.592 434.987 411.925 411.5 425C402.239 430.452 393.572 436.619 385.5 443.5C345.736 476.779 330.736 519.113 340.5 570.5C342.873 579.309 344.873 587.975 346.5 596.5C323.002 582.919 299.668 569.085 276.5 555C264.081 546.083 252.415 536.25 241.5 525.5C225.508 506.529 220.342 484.862 226 460.5C228.683 451.473 232.183 442.806 236.5 434.5C246.729 418.752 259.063 404.586 273.5 392C226.833 399.835 186.166 419.668 151.5 451.5C175.169 406.659 208.169 370.159 250.5 342C298.745 312.179 351.078 293.512 407.5 286C467.036 281.019 525.702 271.019 583.5 256C602.006 250.958 620.339 245.458 638.5 239.5Z" fill="#FDF7EE"/>
<path fill-rule="evenodd" clip-rule="evenodd" d="M518.5 331.5C519.239 331.369 519.906 331.536 520.5 332C509.8 333.814 499.133 335.814 488.5 338C489.833 338.333 491.167 338.667 492.5 339C492.167 339.333 491.833 339.667 491.5 340C493.579 342.278 495.913 344.111 498.5 345.5C497.133 345.504 495.633 346.17 494 347.5C493.333 342.167 492.667 342.167 492 347.5C489.266 346.638 489.099 345.805 491.5 345C490.584 344.626 489.75 344.126 489 343.5C488.536 345.7 488.036 348.033 487.5 350.5C490.35 350.636 493.183 350.969 496 351.5C518.014 347.927 540.014 344.26 562 340.5C563.07 340.528 563.903 340.861 564.5 341.5C518.021 348.913 471.687 356.746 425.5 365C428.397 362.59 431.397 360.423 434.5 358.5C439.927 353.942 445.927 350.109 452.5 347C473.707 338.563 495.707 333.397 518.5 331.5Z" fill="#0C1913"/>
<path fill-rule="evenodd" clip-rule="evenodd" d="M434.5 358.5C450.661 348.407 466.161 342.073 481 339.5C483.25 340.62 485.083 342.286 486.5 344.5C485.691 346.792 485.357 348.959 485.5 351C486.833 351.333 488.167 351.667 489.5 352C470.183 355.775 450.85 359.108 431.5 362C432.71 360.961 433.71 359.794 434.5 358.5Z" fill="#0B251C"/>
<path fill-rule="evenodd" clip-rule="evenodd" d="M638.5 239.5C620.339 245.458 602.006 250.958 583.5 256C525.702 271.019 467.036 281.019 407.5 286C351.078 293.512 298.745 312.179 250.5 342C208.169 370.159 175.169 406.659 151.5 451.5C142.024 460.808 133.857 471.141 127 482.5C124.651 421.218 142.151 366.385 179.5 318C134.035 336.439 95.5351 364.606 64 402.5C80.0054 342.979 108.172 290.146 148.5 244C133.043 218.297 123.543 190.463 120 160.5C115.277 124.402 117.444 88.7357 126.5 53.5C137.238 56.5313 147.571 60.6979 157.5 66C190.487 85.6291 219.987 109.796 246 138.5C255.333 149.167 264.667 159.833 274 170.5C275.034 159.908 273.868 149.575 270.5 139.5C318.058 131.348 365.058 133.848 411.5 147C441.566 155.416 465.899 172.083 484.5 197C505.855 206.255 528.189 211.588 551.5 213C578.82 214.694 606.154 214.861 633.5 213.5C629.801 223.27 631.467 231.937 638.5 239.5Z" fill="#DB6424"/>
<path fill-rule="evenodd" clip-rule="evenodd" d="M443.5 230.5C428.813 236.268 413.48 238.101 397.5 236C385.129 234.108 375.129 228.275 367.5 218.5C370.807 214.685 375.141 212.685 380.5 212.5C381.5 212.833 382.5 213.167 383.5 213.5C390.615 228.06 402.281 234.226 418.5 232C422.172 231.169 425.172 229.335 427.5 226.5C426.167 224.5 424.833 222.5 423.5 220.5C423.833 220.167 424.167 219.833 424.5 219.5C430.621 222.06 436.621 224.894 442.5 228C443.252 228.671 443.586 229.504 443.5 230.5Z" fill="#FBF6EF"/>
<path fill-rule="evenodd" clip-rule="evenodd" d="M443.5 230.501C443.586 229.505 443.252 228.672 442.5 228.001C436.621 224.895 430.621 222.061 424.5 219.501C424.167 219.834 423.833 220.168 423.5 220.501C424.833 222.501 426.167 224.501 427.5 226.501C425.172 229.336 422.172 231.17 418.5 232.001C402.281 234.227 390.615 228.061 383.5 213.501C382.5 213.168 381.5 212.834 380.5 212.501C375.141 212.686 370.807 214.686 367.5 218.501C352.785 219.582 338.119 220.748 323.5 222.001C339.11 203.694 358.777 192.36 382.5 188.001C401.008 186.169 418.342 189.836 434.5 199.001C448.911 209.897 464.245 219.397 480.5 227.501C468.241 229.403 455.907 230.403 443.5 230.501Z" fill="#0C241C"/>
<path fill-rule="evenodd" clip-rule="evenodd" d="M147.5 91.5C150.757 92.4617 153.757 93.9617 156.5 96C189.309 121.459 212.809 153.626 227 192.5C213.357 184.783 198.857 179.116 183.5 175.5C182.479 176.002 182.312 176.668 183 177.5C192.468 187.778 200.968 198.778 208.5 210.5C201.121 215.189 193.455 219.356 185.5 223C182.315 223.388 179.315 222.721 176.5 221C164.858 208.56 156.692 194.06 152 177.5C144.128 149.151 142.628 120.485 147.5 91.5Z" fill="#0B251C"/>
<path fill-rule="evenodd" clip-rule="evenodd" d="M236.5 434.5C232.183 442.806 228.683 451.473 226 460.5C220.342 484.862 225.508 506.529 241.5 525.5C231.121 515.409 224.954 503.075 223 488.5C221.076 468.187 225.576 450.187 236.5 434.5Z" fill="#0B120E"/>
<path fill-rule="evenodd" clip-rule="evenodd" d="M385.5 443.5C380.903 448.61 375.736 453.943 370 459.5C343.136 491.956 333.302 528.956 340.5 570.5C330.736 519.113 345.736 476.779 385.5 443.5Z" fill="#131A16"/>
</svg>
