<svg xmlns="http://www.w3.org/2000/svg" viewBox="0 0 512 512">
  <path fill="#305742" d="M280.5,42.6c-6.2-0.3-12.5,0.7-18.5,3c-6,2.3-11.6,5.9-16.6,10.5c-5,4.6-9.3,10.2-12.8,16.9c-3.4,6.7-6,14.4-7.4,23.3c0,0-23.1-8.2-42.8-7.2s-35.6,10-35.6,10c-15.3-22.4-34.8-29.3-53.5-28.2s-33.3,11.2-33.3,11.2c-28.5,0-50.3,13.1-60.1,21.7c0,0,17.7-3.1,32.8,3.8s27.7,21.2,27.7,21.2s-13.1-2.5-26.1,7.9c-13.1,10.3-26.1,36.9-26.1,36.9s0.7-0.1,1.8-0.4c1.1-0.3,2.8-0.7,4.8-1.2c4-1,9.6-2.4,15.5-3.2c5.9-0.8,12.3-1,17.6,0c5.3,1,9.8,3.2,11.9,7.2c1.1,2,1.6,4.3,1.5,6.7c-0.1,2.4-0.7,4.9-1.6,7.3c-1.8,4.8-4.8,9.5-7.9,13.7c-3.2,4.3-6.7,8.1-9.9,11.4c-1.6,1.6-3.1,3.1-4.5,4.4c-1.4,1.3-2.6,2.5-3.8,3.6c-0.6,0.5-1.4,1.1-2.2,1.5c-0.8,0.4-1.6,0.7-2.4,0.6c-1.5-0.1-2.7-1.2-3.7-2.2c-1-1-1.9-2-2.8-3c-1.8-2-3.5-3.9-5.3-5.8c0,0-5.2,10.1-6.6,24.4s2.7,32.8,2.7,32.8l-15.2,8.5l18.4,6.4c0,0,25.8,56.8,80.9,111.9c55.1,55.1,141,81.6,190.5,81.6c49.5,0,73.3-3.8,123.8-40.8c50.5-37,80.4-108.1,80.4-108.1s-10.9-61.2-57-123.8S412.4,86.3,412.4,86.3s-28.7-10-60.4-15.3s-65.2-2.3-65.2-2.3L272.3,47C271.7,44.5,276.8,42.6,280.5,42.6L280.5,42.6z" />
  <circle fill="#305742" cx="341.5" cy="153.8" r="10"/>
  <circle fill="#305742" cx="170.5" cy="153.8" r="10"/>
  <path fill="#e63946" d="M276.2,258.8c0,0-17.8,12.7-40.5,12.7s-40.5-12.7-40.5-12.7l-4.4,20.3c0,0,18.4,16.5,44.9,16.5s44.9-16.5,44.9-16.5L276.2,258.8z"/>
</svg> 